<svg id="logo_svg" data-name="logo" xmlns="http://www.w3.org/2000/svg" viewBox="0 0 227.36 46.15"><defs><style>.cls-1{fill:#59595b;}.cls-2{fill:#404f9d;}</style></defs><title>LOGO</title><path class="cls-1" d="M48,11.35a9.66,9.66,0,0,0-3.81-3.4,11.3,11.3,0,0,0-9.82,0,9.65,9.65,0,0,0-3.81,3.4A10,10,0,0,0,29,17V51.21h4.17V17a8.86,8.86,0,0,1,.92-4.22,6.27,6.27,0,0,1,2.26-2.49,5.61,5.61,0,0,1,5.77,0,6.29,6.29,0,0,1,2.26,2.49A8.89,8.89,0,0,1,45.33,17V29.29h-10v2.5h10V51.21H49.5V17A10,10,0,0,0,48,11.35Z" transform="translate(-29.04 -6.33)"/><path class="cls-1" d="M71.15,8.28V42.17a8.65,8.65,0,0,1-.92,4.19A6.4,6.4,0,0,1,68,48.82a5.61,5.61,0,0,1-5.76,0A6.4,6.4,0,0,1,60,46.35a8.65,8.65,0,0,1-.91-4.19V8.28H55V42.17a9.85,9.85,0,0,0,1.51,5.59,9.51,9.51,0,0,0,3.77,3.33,11.27,11.27,0,0,0,9.68,0,9.52,9.52,0,0,0,3.77-3.33,9.85,9.85,0,0,0,1.51-5.59V8.28Z" transform="translate(-29.04 -6.33)"/><polygon class="cls-1" points="49.15 1.67 49.15 4.16 57.22 4.16 57.22 44.87 61.32 44.87 61.32 4.16 69.39 4.16 69.39 1.67 49.15 1.67"/><path class="cls-1" d="M120.06,11.2a9.9,9.9,0,0,0-3.84-3.4,11.46,11.46,0,0,0-9.89,0,9.63,9.63,0,0,0-5.39,9.1v25a9.63,9.63,0,0,0,5.39,9.1,11.39,11.39,0,0,0,9.89,0,9.87,9.87,0,0,0,3.84-3.4,10,10,0,0,0,1.55-5.7v-25A10,10,0,0,0,120.06,11.2Zm-2.62,5.7v25a8.83,8.83,0,0,1-.91,4.25,6.49,6.49,0,0,1-2.3,2.5,5.66,5.66,0,0,1-5.9,0,6.47,6.47,0,0,1-2.3-2.5,8.82,8.82,0,0,1-.92-4.26v-25a9,9,0,0,1,.92-4.29,6.45,6.45,0,0,1,2.29-2.53,5.64,5.64,0,0,1,5.9,0,6.46,6.46,0,0,1,2.29,2.53A9,9,0,0,1,117.44,16.9Z" transform="translate(-29.04 -6.33)"/><path class="cls-2" d="M141.92,7.61a11.88,11.88,0,0,0-10.15,0,10,10,0,0,0-4,3.53A10.39,10.39,0,0,0,126.25,17V51.58h4.91V17a8.48,8.48,0,0,1,.87-4,5.87,5.87,0,0,1,2.12-2.35,5.32,5.32,0,0,1,5.39,0,5.89,5.89,0,0,1,2.12,2.35,8.51,8.51,0,0,1,.87,4V51.58h4.91V17a10.39,10.39,0,0,0-1.57-5.83A10,10,0,0,0,141.92,7.61Z" transform="translate(-29.04 -6.33)"/><path class="cls-2" d="M167.18,7.47a12,12,0,0,0-10.22,0,10,10,0,0,0-5.59,9.43v25A10,10,0,0,0,157,51.32a11.78,11.78,0,0,0,10.22,0,10,10,0,0,0,5.59-9.43v-25a10,10,0,0,0-5.59-9.43Zm.68,9.43v25A8.49,8.49,0,0,1,167,46a6.14,6.14,0,0,1-2.17,2.36,5.37,5.37,0,0,1-5.52,0A6.12,6.12,0,0,1,157.15,46a8.49,8.49,0,0,1-.87-4.08v-25a8.67,8.67,0,0,1,.87-4.12,6.07,6.07,0,0,1,2.16-2.39,5.26,5.26,0,0,1,5.52,0A6.08,6.08,0,0,1,167,12.78,8.68,8.68,0,0,1,167.86,16.9Z" transform="translate(-29.04 -6.33)"/><path class="cls-2" d="M192.71,7.61a11.86,11.86,0,0,0-10.15,0,10,10,0,0,0-4,3.53A10.38,10.38,0,0,0,177,17V51.58h4.84V17a8.49,8.49,0,0,1,.87-4,5.89,5.89,0,0,1,2.12-2.35,5.58,5.58,0,0,1,5.53,0,5.92,5.92,0,0,1,2.12,2.35,8.52,8.52,0,0,1,.87,4V21.5a8.69,8.69,0,0,1-.48,2.89,7.71,7.71,0,0,1-1.28,2.35,6,6,0,0,1-1.82,1.52,4.47,4.47,0,0,1-2.11.53h-3.78v3.38h3.78a4.23,4.23,0,0,1,2.09.55,6.68,6.68,0,0,1,1.85,1.54,7.4,7.4,0,0,1,1.28,2.28,8.37,8.37,0,0,1,.47,2.84v12.2h4.84V39.38a10.42,10.42,0,0,0-4.88-8.87,11.13,11.13,0,0,0,3.1-3.07,10.36,10.36,0,0,0,1.79-5.94V17a10.37,10.37,0,0,0-1.57-5.83A10,10,0,0,0,192.71,7.61Z" transform="translate(-29.04 -6.33)"/><path class="cls-2" d="M225.25,6.88a8.49,8.49,0,0,0-4.79-.24,7.47,7.47,0,0,0-3.67,2.08,7.44,7.44,0,0,0-3.67-2.08,8.6,8.6,0,0,0-4.82.23,8.69,8.69,0,0,0-3.93,2.81,7.61,7.61,0,0,0-1.65,4.92v37h4.91v-37a5.44,5.44,0,0,1,1.07-3.71,2.77,2.77,0,0,1,4.48,0,5.35,5.35,0,0,1,1.1,3.7v37h4.91V15.46h.07v-.85a5.44,5.44,0,0,1,1.07-3.71,2.74,2.74,0,0,1,4.44,0,5.44,5.44,0,0,1,1.07,3.71v37h4.91V15.46h.07v-.85a7.62,7.62,0,0,0-1.65-4.92A8.75,8.75,0,0,0,225.25,6.88Z" transform="translate(-29.04 -6.33)"/><path class="cls-2" d="M254.84,11.14a10,10,0,0,0-4-3.53,11.87,11.87,0,0,0-10.15,0,10,10,0,0,0-4,3.53A10.4,10.4,0,0,0,235.22,17V51.58h4.91V17a8.48,8.48,0,0,1,.88-4.05,5.89,5.89,0,0,1,2.12-2.35,5.21,5.21,0,0,1,2.7-.75,5.14,5.14,0,0,1,2.7.75,5.9,5.9,0,0,1,2.12,2.35,8.49,8.49,0,0,1,.88,4v12h-9.29l0,3.23h9.34V51.58h4.91V17A10.4,10.4,0,0,0,254.84,11.14Z" transform="translate(-29.04 -6.33)"/></svg>